<svg xmlns="http://www.w3.org/2000/svg" viewBox="0 0 128 128" width="128" height="128">
  <!-- Recito icon: rounded friendly book tilted forward, concentric wave arcs -->
  <defs>
    <linearGradient id="bg" x1="0" y1="0" x2="0" y2="1">
      <stop offset="0%" stop-color="#F59E0B"/>
      <stop offset="100%" stop-color="#D97706"/>
    </linearGradient>
  </defs>

  <!-- Background -->
  <rect width="128" height="128" rx="28" fill="url(#bg)"/>

  <!-- Book group — tilted forward ~8 degrees -->
  <g transform="rotate(-8, 64, 80)">
    <!-- Spine -->
    <line x1="64" y1="52" x2="64" y2="96" stroke="white" stroke-width="4.5" stroke-linecap="round"/>

    <!-- Left page (convex outward) -->
    <path d="M64 52 Q42 48 26 54 L26 92 Q42 86 64 90" fill="white" fill-opacity="0.25" stroke="white" stroke-width="4.5" stroke-linecap="round" stroke-linejoin="round"/>

    <!-- Right page (convex outward) -->
    <path d="M64 52 Q86 48 102 54 L102 92 Q86 86 64 90" fill="white" fill-opacity="0.25" stroke="white" stroke-width="4.5" stroke-linecap="round" stroke-linejoin="round"/>

    <!-- Text lines on left page -->
    <line x1="36" y1="66" x2="56" y2="64" stroke="white" stroke-width="3" stroke-linecap="round" opacity="0.45"/>
    <line x1="34" y1="76" x2="54" y2="74" stroke="white" stroke-width="3" stroke-linecap="round" opacity="0.45"/>

    <!-- Text lines on right page -->
    <line x1="72" y1="64" x2="92" y2="66" stroke="white" stroke-width="3" stroke-linecap="round" opacity="0.45"/>
    <line x1="74" y1="74" x2="94" y2="76" stroke="white" stroke-width="3" stroke-linecap="round" opacity="0.45"/>
  </g>

  <!-- Sound wave arcs (concentric, A/B style) -->
  <path d="M52 42 C56 34 72 34 76 42" fill="none" stroke="white" stroke-width="4" stroke-linecap="round" opacity="0.95"/>
  <path d="M44 34 C50 22 78 22 84 34" fill="none" stroke="white" stroke-width="3.5" stroke-linecap="round" opacity="0.65"/>
  <path d="M38 26 C46 12 82 12 90 26" fill="none" stroke="white" stroke-width="3" stroke-linecap="round" opacity="0.35"/>
</svg>
